<svg width="54" height="54" viewBox="0 0 54 54" fill="none" xmlns="http://www.w3.org/2000/svg"><path d="M26.75 0.5C12 0.5 0 12.45 0 27.25C0 42.05 12 54 26.75 54C41.5 54 53.5 42 53.5 27.25C53.5 12.5 41.5 0.5 26.75 0.5ZM26.75 52.1C13 52.1 1.85 40.95 1.85 27.25C1.85 13.55 13 2.35 26.75 2.35C40.5 2.35 51.65 13.5 51.65 27.25C51.65 41 40.5 52.1 26.75 52.1Z" fill="#0858A1"/><path d="M23.5499 6.75L16.45 10.9V22.55H23.5499V6.75Z" fill="#0858A1"/><path d="M25.3999 6.75V15L42.3499 24.9V16.55L25.3999 6.75Z" fill="#0858A1"/><path d="M16.45 31.6501V40.0001L40.5 25.9501L33.4 21.8501L16.45 31.6501Z" fill="#0858A1"/><path d="M17.2999 41.65L28.7499 48.2999V38.9L25.3999 36.95L17.2999 41.65Z" fill="#0858A1"/></svg>