<svg width="41" height="41" viewBox="0 0 41 41" fill="none" xmlns="http://www.w3.org/2000/svg"><path d="M20.3452 0.0817871C9.29806 0.0817871 0.310547 9.03186 0.310547 20.1165C0.310547 31.2011 9.29806 40.1511 20.3452 40.1511C31.3924 40.1511 40.3799 31.1636 40.3799 20.1165C40.3799 9.0693 31.3924 0.0817871 20.3452 0.0817871ZM20.3452 38.7281C10.047 38.7281 1.69612 30.3772 1.69612 20.1165C1.69612 9.85571 10.047 1.46736 20.3452 1.46736C30.6434 1.46736 38.9943 9.81826 38.9943 20.1165C38.9943 30.4147 30.6434 38.7281 20.3452 38.7281Z" fill="#FCFCFC"/><path d="M17.9465 4.7627L12.6289 7.87088V16.5963H17.9465V4.7627Z" fill="#FCFCFC"/><path d="M19.332 4.7627V10.9416L32.0269 18.3563V12.1025L19.332 4.7627Z" fill="#FCFCFC"/><path d="M12.6289 23.4118V29.6656L30.6414 19.1428L25.3238 16.072L12.6289 23.4118Z" fill="#FCFCFC"/><path d="M13.2637 30.9012L21.8393 35.8818V28.8416L19.3302 27.3811L13.2637 30.9012Z" fill="#FCFCFC"/></svg>